<?xml version="1.0" encoding="UTF-8" standalone="no"?>
<svg xmlns:rdf="http://www.w3.org/1999/02/22-rdf-syntax-ns#" xmlns="http://www.w3.org/2000/svg" height="301" viewBox="0 0 1016 301" width="1016" version="1.1" xmlns:cc="http://creativecommons.org/ns#" xmlns:dc="http://purl.org/dc/elements/1.1/">
<path d="m732 300.33c-22.4-3.56-45.11-16.57-58.06-33.27-4.27-5.51-9.94-14.23-9.94-15.28 0-0.43105-1.9125-0.79061-4.25-0.79903-6.9058-0.0249-6.9975-0.21297-7.1309-14.625-0.36125-39.02 7.4754-63.044 27.295-83.675 4.78-4.97 26.09-19.68 28.51-19.68 0.42694 0 2.1943-0.63278 3.9274-1.4062 1.7331-0.7734 4.4417-1.6953 6.0191-2.0487 1.5774-0.35337 2.6198-0.89065 2.3165-1.194-0.64076-0.64077-12.368 2.1727-16.436 3.9431-34.28 14.92-52.1 48.36-53.94 101.21-0.5 14.45-22.31 31.02-22.31 16.95 0-0.30231 0.61333-1.7648 1.363-3.25 0.74963-1.4852 2.3376-11.25 3.5288-21.7s2.821-23.05 3.6219-28c5.1941-32.105 4.8906-49.497-1.003-57.486-2.87-3.89-3.11-5.01-1.07-5.01 2.0508 0 15.717-6.3465 22.408-10.406 32.05-19.44 73.4-27.102 114.15-21.14 59.216 8.6593 96.684 18.028 126.85 31.718 2.391 1.0852 4.5816 1.7388 4.868 1.4524 0.28637-0.28636-0.62431-0.80804-2.0237-1.1593-1.3994-0.35123-3.3223-1.4981-4.273-2.5487-0.96-1.05-2.19-1.91-2.74-1.91-0.54918 0-3.2919-1.0631-6.095-2.3625-6.7807-3.1432-17.706-7.0584-25.096-8.9934-3.3-0.86405-11.912-3.116-19.139-5.0044-50.57-13.21-111.66-18.014-139.86-10.99-3.3 0.8222-8.475 2.0773-11.5 2.7891-10.568 2.4869-21.064 7.3774-42.004 19.572-13.281 7.7345-19.544 8.3818-18.08 1.8686 0.92129-4.1002-0.20323-8.2536-1.2994-4.7992-0.24734 0.77947-1.0496 3.4422-1.7828 5.9172-1.9488 6.5783-23.021 5.344-85.333-4.9986-3.3-0.54773-14.775-2.1755-25.5-3.6172s-21.75-2.951-24.5-3.3541c-2.75-0.40304-9.8375-1.3114-15.75-2.0186-12.101-1.4474-11.797-1.1246-9.2251-9.7836 1.824-6.1422 10.302-19.158 14.775-22.684 1.76-1.3872 2.6081-2.5272 1.8847-2.5333-4.4754-0.03773-17.06 17.825-19.657 27.901l-1.1826 4.5882-7.4225-0.1455c-4.0824-0.08-11.023-0.61412-15.423-1.1869-10.495-1.3661-24.282-2.8893-38.5-4.2535-6.325-0.60686-15.1-1.7345-19.499-2.5058-4.3994-0.77133-12.949-1.865-19-2.4304-6.04-0.56-13.91-1.44-17.49-1.94-3.575-0.50856-11.886-1.4813-18.468-2.1616-16.66-1.7218-11.748-2.5312 16.477-2.7153 31.625-0.20631 40.598-2.0072 51.43-10.322 4.4-3.384 13.56-14.619 13.56-16.638 0-1.748 4.5068-4.3192 6.3386-3.6162 3.843 1.4747 15.706-6.5872 30.541-20.756 41.739-39.862 52.114-46.399 60.184-37.918 10.672 11.215 10.286 12.048-18.814 40.54-11.165 10.932-11.099 9.506-0.88986 19.307 9.6651 9.2789 10.445 9.6418 17.14 7.9814 5.7666-1.4301 5.2821 1.4123 3.9606-23.239-1.0606-19.784 4.0895-23.401 10.094-7.0893 4.1733 11.336 4.3224 11.844 5.0237 17.096 1.0488 7.8553 2.885 11.5 5.7936 11.5 5.4378 0 12.192 10.67 11.583 18.296-0.0969 1.2123-0.12643 2.7294-0.0656 3.3715 0.16656 1.7565 23.427 9.2222 36.733 11.79 7.8521 1.5152 8.7865 1.0811 15.331-7.1218 13.037-16.34 20.783-20.379 40.476-21.106 11.134-0.41088 13.551-0.80718 17.399-2.8533 5.3744-2.8576 10.455-3.0135 16.884-0.51795 3.4709 1.3473 8.7735 2.0343 19.287 2.4987 29.47 1.3018 62.1 5.6262 100 13.252 12.602 2.5357 14.369 2.9112 28 5.948 71.775 15.99 127.08 49.36 148.49 89.587 1.2489 2.3474 3.5098 2.4149 3.5226 0.10529 0.073-13.076 19.297-22.191 27.416-13 5.4946 6.2205 6.5285 10.008 6.5526 24 0.025 14.383-0.6486 13.395 8.7565 12.839 5.0456-0.29868 6.9599 2.3964 5.8613 8.2522l-0.6555 3.494-7.5421 0.70676c-6.9572 0.65194-7.614 0.91042-8.4695 3.3325-2.2823 6.4618-7.0919 10.12-13.326 10.137-2.2562 0.006-6.328 0.68603-9.0485 1.5113-4.7212 1.4322-21.68 4.074-41.054 6.3954-10.709 1.2832-44.395 3.7075-64 4.6059-20.687 0.94803-44.907 3.1977-45.242 4.2023-9.9218 29.765-57.719 54.412-94.258 48.605zm25.56-3.4019c25.83-3.59 64.44-30.44 64.44-44.81 0-3.2188-4.9617-0.90114-7.7806 3.6345-30.1 48.431-103.76 49.103-136.96 1.25-6.8897-9.9307-12.004-8.3426-5.3287 1.6546 18.689 27.987 52.129 42.934 85.632 38.274zm8.7922-9.4256c16.129-4.4608 34.028-16.683 42.735-29.183 4.6339-6.6516 4.8069-6.5722-13.338-6.1238l-16.25 0.40151-5.5 3.72c-16.829 11.382-39.15 11.604-57.443 0.57115l-6.6817-4.0299-16.557-0.58702c-19.242-0.68221-18.538-1.6038-8.1206 10.63 19.131 22.467 52.403 32.553 81.155 24.601zm-9.4288-30.674c8.8124-2.0341 5.5854-2.6554-11.174-2.151-18.878 0.56811-19.768 0.70258-13.75 2.0792 6.2666 1.4335 18.867 1.4698 24.924 0.0718zm223.78-28.08c4.1722-4.5806 4.497-6.4432 4.9716-28.502 0.55-25.27 0.13-29.25-3.06-29.25-4.02 0-10.61 9.09-10.61 14.62 0 0.72881 1.35 2.0232 3 2.8765 1.65 0.85325 3 2.1894 3 2.9691 0 0.77979-1.35 2.2152-3 3.1899-3.5335 2.0873-3.5311 2.0646-1.038 10.016 1.0649 3.3965 2.2484 10.709 2.63 16.25 0.74503 10.817 0.97822 11.261 4.1087 7.8245zm-355.7-106.08c8.3408-2.1677 6.4798-9.2638-2-7.6258-7.5494 1.4583-32.166 1.1048-41.23-0.59199-31.472-5.892-64.769-19.904-83.554-35.161-5.7384-4.6608-11.161-2.2727-6.588 2.9016 22.41 25.367 100.42 49.037 133.37 40.477zm19.605-6.3779c21.27-11.05 32.93-41.29 15.94-41.29-5.4707 0-6.0144 0.83723-4.5385 6.9894 1.9355 8.0681 1.4201 8.5683-8.4083 8.1611l-8.435-0.34945-1.6028 3.0994c-1.8335 3.5455-1.5929 3.6894 2.5703 1.5365 3.17-1.639 13.88-1.135 13.88 0.654 0 1.8749-11.782 12.56-16.25 14.736-4.4152 2.1511-4.75 2.5795-4.75 6.0774 0 5.9246 0.89884 5.9546 11.605 0.38815zm-35.289-3.4046c3.01-1.54 14.69-13.063 14.69-14.5 0-6.7465-22.557 1.4522-31.348 11.394-3.4601 3.9131 10.113 6.4406 16.664 3.1029zm15.19-4.89c10.36-14.82 10.5-15.087 10.5-19.954 0-12.221-27.143-7.4644-35.956 6.3013-1.7493 2.7325-0.37173 3.3041 2.2098 0.91701 6.65-6.148 28.75-6.862 28.75-0.929 0 1.475-7.7944 10.942-12.098 14.695-3.7299 3.2521-3.6634 4.1716 0.27332 3.7831 2.4618-0.24295 3.8823-1.3245 6.3218-4.8134zm-42.612 3.0922c1.9184-1.215-0.94507-2.6276-7.1519-3.5281-2.6217-0.38039-11.844-2.8783-20.494-5.551-8.6497-2.6726-15.925-4.6614-16.167-4.4195-2.6793 2.6793 40.089 15.856 43.812 13.499zm-138.73-20.34c0.84805-0.6875 2.8254-3.05 4.3942-5.25s12.548-13.801 24.399-25.781c21.65-21.883 24.31-24.669 20.47-21.458-1.14 0.956-2.46 1.739-2.93 1.739-0.46 0-9.65 8.701-20.42 19.337-19.28 19.048-27.67 25.86-33.57 27.26-2.8032 0.66473-4.4488 1.9821-4.4847 3.5901-0.0139 0.62465 3.1254 1.2322 8.5436 1.6533 1.1324 0.08802 2.7527-0.40246 3.6008-1.09zm212.2-4.709c2.94-2.936-5.79-5.836-17.86-5.936l-5-0.0414 2.75 2.4204c1.5125 1.3312 2.75 3.0094 2.75 3.7292 0 1.6247 15.718 1.4693 17.359-0.17163zm-166.31-11.139c1.605-2.9991-11.994-17.025-14.495-14.95-2.5685 2.1317-1.8368 3.981 4.1923 10.596 6.1244 6.7197 8.4992 7.7231 10.303 4.3534zm28.922-9.9783c-1.3366-6.7238-2.7269-10.195-3.8143-9.5228-1.0864 0.67146 0.66544 13.685 2.0701 15.378 2.0152 2.4282 2.8402-0.3412 1.7442-5.8549zm-66.625-2.5031 11.85-0.67248 5.6504-4.7589c15.78-13.283 40.16-39.043 40.16-42.423 0-4.6893-8.23-12.529-10.82-10.314-9.66 8.237-38.82 33.97-46.68 41.194-5.5 5.0559-11.909 10.898-14.242 12.982-4.5453 4.0601-4.7004 6.0033-0.41308 5.1761 1.4601-0.2817 7.9871-0.8148 14.504-1.1847zm-337.84 234.96c-32.455-6.43-57.53-28.08-68.316-58.97l-2.684-7.69-5.593-1.76c-16.859-5.32-28.108-16-32.783-31.13-4.4114-14.27-4.4097-40.48 0.0026-45.28 0.4804-0.52 0.8734-1.97 0.8734-3.22 0-4.0459 5.8808-16.58 10.804-23.028 1.9867-2.602 3.1989-5.1871 2.9244-6.2368-1.4243-5.4463 3.2793-19.932 7.1435-22 2.848-1.5242 3.0711-0.42397 1.0127 4.9933-1.94 5.11-2.536 11.94-1.041 11.94 0.46404 0 1.6445-3.8159 2.6233-8.4798 2.2716-10.825 1.8562-10.57 17.326-10.622 11.356-0.03857 13.764-0.34875 18.863-2.4291 7.128-2.909 20.013-5.909 35.344-8.229 8.359-1.2648 11.5-2.1223 11.5-3.1395 0-2.6437 7.0606-3.8668 26.067-4.5159 10.413-0.3556 22.983-0.85688 27.933-1.114 21.257-1.104 90.742-4.554 110.5-5.4864 11.825-0.55804 28.475-1.4347 37-1.948 8.525-0.51339 29.9-1.408 47.5-1.9881 17.6-0.58009 35.428-1.3312 39.618-1.6691 10.646-0.85852 10.353 2.5602-1.303 15.205-13.19 14.31-72.92 17.38-153.32 7.88-45.26-5.348-61.87-6.665-90.5-7.175-16.225-0.28954-29.275-0.30515-29-0.03468 0.42149 0.41454 48.469 1.9794 54.5 1.775 1.1-0.03728 5.375 0.36695 9.5 0.8983s13.575 1.4867 21 2.1231c7.425 0.63636 18.675 1.8135 25 2.6159 18.532 2.351 41.456 5.1201 56.5 6.8249 42.561 4.8231 59.442 6.8084 72.5 8.5267 7.975 1.0494 20.8 2.6412 28.5 3.5372 16.402 1.9087 26.068 3.0644 33 3.9453 2.75 0.3495 10.621 1.298 17.49 2.1079 14.176 1.6712 15.497 2.3054 10.833 5.202-6.7403 4.186-16.004 16.121-17.223 22.19-4.3886 21.844-1.3416 89.464 4.5623 101.25 2.7482 5.4864 3.1193 4.5775 0.73404-1.7977-2.5403-6.7896-3.5679-16.338-4.8732-45.282-2.3308-51.681 1.251-64.853 20.736-76.251l5.2587-3.0763 13.241 1.6046c24.003 2.9087 37.09 4.5565 48.741 6.1371 6.325 0.85803 15.1 1.9721 19.5 2.4757 4.4 0.50363 10.7 1.3877 14 1.9646 17.168 3.0012 50.212 7.3322 58.948 7.726 18.319 0.82583 24.848 16.927 18.144 44.749-0.26505 1.1-1.8527 12.8-3.5281 26-4.686 36.919-5.0978 39.274-7.3768 42.171l-2.0608 2.6199-22.563-0.77227c-26.84-0.92-127.5-1.47-278.56-1.52l-110-0.0389-1.7984 2.2712c-0.98913 1.2492-4.1391 5.6286-7 9.7321-18.923 27.142-57.805 42.84-90.202 36.418zm33.118-3.8701c27.208-5.2057 62.423-33.07 64.966-51.405 0.0461-0.3323 0.56847-1.7654 1.1608-3.1848 33.93-81.32-78.83-149.97-142.76-86.92-60.367 59.53-7.277 157.56 76.63 141.51zm-29.787-4.4634c-77.493-14.22-92.704-112.01-23.003-147.9 53.503-27.55 118.06 10.07 118.15 68.85 0.075 48.019-47.741 87.742-95.149 79.045zm25.67-2.49c59.785-6.3506 88.051-84.35 46.261-127.66-50.69-52.53-140.7-14.27-136.47 58 2.621 44.79 41.525 74.83 90.21 69.66zm-26.19-26.09c-30.459-8.21-46.569-43.31-32.734-71.33 21.224-42.97 86.944-36.6 97.954 9.5 8.94 37.43-27.52 71.99-65.22 61.83zm32.153-7.7932c17.768-8.2242 27.712-22.888 27.656-40.781-0.0216-6.8415-1.8332-17.857-3.1074-18.895-0.33766-0.275-1.4172-2.2256-2.399-4.3347-15.49-33.278-71.272-28.028-83.623 7.8704-3.3728 9.8033-2.7392 27.776 1.1251 31.914 0.48797 0.5225 0.88721 1.7052 0.88721 2.6283 0 2.4661 12.498 15.543 17.856 18.683 12.309 7.2138 29.687 8.4312 41.605 2.9147zm-28.46 1.74c-22.671-8.55-34-22.9-34-43.07 0-47.19 65.08-61.17 85.41-18.35 3.5448 7.4655 4.4885 24.867 1.7354 32-1.7568 4.5516-3.5173 8.3718-4.1475 9-0.27587 0.275-2.198 2.6117-4.2715 5.1926-9.3008 11.577-33.01 19.648-44.73 15.227zm25.724-4.6523c34.005-13.735 36.741-59.242 4.5469-75.633-16.915-8.612-38.836-4.6694-51.501 9.2628-29.522 32.475 6.125 82.862 46.954 66.37zm-26.779-3.1529c-39.813-15.394-32.598-70.207 9.5331-72.418 41.116-2.1581 55.735 51.169 19.121 69.753-7.719 3.918-21.983 5.2445-28.654 2.6649zm26.603-5.5071c22.051-10.258 26.05-41.312 7.2342-56.185-26.347-20.826-64.573 3.7671-55.322 35.591 5.9614 20.507 27.993 29.942 48.088 20.594zm-21.994-8.8343c-8.93-2.28-15.55-11.33-15.55-21.28 0-28.531 43.222-30.456 44.83-1.9964 0.90479 16.012-13.33 27.326-29.276 23.269zm11.2-29.78c6.1175 0 6.3894-0.39561 2.0384-2.9658-3.4901-2.0617-12.024-2.6949-13.704-1.0169-2.3263 2.3232-0.041 5.6402 3.2958 4.7837 1.716-0.4405 5.4826-0.80091 8.3702-0.80091z"/>
</svg>
